<svg width="78" height="78" viewBox="0 0 78 78" fill="none" xmlns="http://www.w3.org/2000/svg">
<g clip-path="url(#clip0_7_114)">
<path d="M0 0V78H78V0H0ZM3.705 18.5737H14.8687V26.0081H59.4262V18.5737H66.8606V37.1475H63.1556V29.7131H59.4262V33.4425H51.9919V29.7131H48.2869V33.4425H40.8525V29.7131H37.1475V33.4425H29.7131V29.7131H26.0081V33.4425H18.5737V29.7131H14.8687V37.1475H11.1394V22.3031H3.705V18.5737ZM18.5737 22.3031V18.5737H22.2788V22.3031H18.5737ZM29.7131 22.3031V18.5737H33.4181V22.3031H29.7131ZM40.8525 22.3031V18.5737H44.5819V22.3031H40.8525ZM51.9919 22.3031V18.5737H55.7213V22.3031H51.9919ZM59.4262 37.1475V44.5819H18.5737V37.1475H59.4262ZM3.705 26.0081H7.43437V48.2869H3.705V26.0081ZM74.295 70.59H3.705V66.8606H18.5737V55.7213H3.705V52.0163H11.1394V40.8525H14.8687V52.0163H18.5737V48.2869H26.0081V52.0163H29.7131V48.2869H37.1475V52.0163H40.8525V48.2869H48.2869V52.0163H51.9919V48.2869H59.4262V52.0163H63.1556V40.8525H66.8606V44.5819H70.5656V37.1475H74.295V70.59ZM74.295 33.4425H70.5656V14.8687H59.4262V11.1394H14.8687V14.8687H3.705V3.72937H22.2788V7.43437H26.0081V3.72937H29.7131V7.43437H33.4181V3.72937H37.1475V7.43437H40.8525V3.72937H44.5819V7.43437H48.2869V3.72937H51.9919V7.43437H55.7213V3.72937H74.295V33.4425Z" fill="#000001"/>
<path d="M70.5656 55.7213H66.8606V66.8606H70.5656V55.7213Z" fill="#000001"/>
<path d="M70.5656 7.43437H66.8606V11.1394H70.5656V7.43437Z" fill="#000001"/>
<path d="M63.1556 55.7213H59.4262V66.8606H63.1556V55.7213Z" fill="#000001"/>
<path d="M51.9919 55.7213H48.2869V59.4262H44.5819V55.7213H40.8525V59.4262H37.1475V66.8606H55.7212V59.4262H51.9919V55.7213Z" fill="#000001"/>
<path d="M33.4181 55.7213H22.2787V66.8606H33.4181V55.7213Z" fill="#000001"/>
<path d="M11.1394 7.43437H7.43439V11.1394H11.1394V7.43437Z" fill="#000001"/>
</g>
<defs>
<clipPath id="clip0_7_114">
<rect width="78" height="78" fill="white"/>
</clipPath>
</defs>
</svg>
