<svg width="21" height="22" viewBox="0 0 21 22" fill="none" xmlns="http://www.w3.org/2000/svg">
<path d="M19.9959 10.4741H18.9984V7.33218H18.0009V10.4741H15.9994V11.5259H15.0019V13.6159H15.9994V14.6678H18.0009V18.8547H18.9984V14.6678H19.9959V13.6159H21V11.5259H19.9959V10.4741ZM18.0009 12.5709H16.9969V11.5259H18.0009V12.5709Z" fill="#5757EC"/>
<path d="M18.001 18.8547H16.9969V19.9066H18.001V18.8547Z" fill="#5757EC"/>
<path d="M18.001 6.28717H16.9969V7.33217H18.001V6.28717Z" fill="#5757EC"/>
<path d="M16.9969 19.9066H2.00156V20.9516H16.9969V19.9066Z" fill="#5757EC"/>
<path d="M15.0019 2.09344H13.0003V3.14532H15.0019V2.09344Z" fill="#5757EC"/>
<path d="M13.0003 3.14529H10.9987V4.19029H13.0003V3.14529Z" fill="#5757EC"/>
<path d="M10.9988 2.09344H10.0013V3.14532H10.9988V2.09344Z" fill="#5757EC"/>
<path d="M10.0013 1.04843H7.99969V2.09343H10.0013V1.04843Z" fill="#5757EC"/>
<path d="M7.9997 2.09344H5.99814V3.14532H7.9997V2.09344Z" fill="#5757EC"/>
<path d="M5.99811 3.14529H3.99655V4.19029H5.99811V3.14529Z" fill="#5757EC"/>
<path d="M5.00061 7.33218H3.99655V18.8547H5.00061V7.33218Z" fill="#5757EC"/>
<path d="M16.9969 6.28717V5.23529H15.9994V3.14529H15.0019V5.23529H10.9987V4.19029H10.0012V5.23529H3.99656V4.19029H2.99906V5.23529H2.00156V6.28717H16.9969Z" fill="#5757EC"/>
<path d="M2.00156 18.8547H0.997498V19.9066H2.00156V18.8547Z" fill="#5757EC"/>
<path d="M2.00156 6.28717H0.997498V7.33217H2.00156V6.28717Z" fill="#5757EC"/>
<path d="M0.9975 7.33218H0V18.8547H0.9975V7.33218Z" fill="#5757EC"/>
</svg>
