<svg width="32" height="32" viewBox="0 0 32 32" fill="none" xmlns="http://www.w3.org/2000/svg">
<g clip-path="url(#clip0_16_41)">
<path d="M22.85 12.19V18.29H25.9V30.48H27.43V1.51999H25.9V12.19H22.85ZM25.9 15.24H24.38V13.71H25.9V15.24Z" fill="#7E7E7E"/>
<path d="M25.9 30.48H1.51999V32H25.9V30.48Z" fill="#7E7E7E"/>
<path d="M24.38 27.43H3.04999V28.95H24.38V27.43Z" fill="#7E7E7E"/>
<path d="M18.28 18.29H16.76V19.81H18.28V18.29Z" fill="#7E7E7E"/>
<path d="M16.76 21.33H10.66V22.86H16.76V21.33Z" fill="#7E7E7E"/>
<path d="M10.66 18.29H9.14001V19.81H10.66V18.29Z" fill="#7E7E7E"/>
<path d="M7.615 7.62H6.09V9.14H24.38V1.52H25.9V0H6.09V1.52H7.615V7.62ZM21.325 3.05H22.845V7.62H21.325V3.05ZM18.275 3.05H19.815V7.62H18.285L18.275 3.05ZM15.235 3.05H16.755V7.62H15.235V3.05ZM12.185 3.05H13.715V7.62H12.195L12.185 3.05ZM9.135 3.05H10.655V7.62H9.135V3.05Z" fill="#7E7E7E"/>
<path d="M6.09001 1.51999H4.57001V3.04999H6.09001V1.51999Z" fill="#7E7E7E"/>
<path d="M4.56999 3.04999H3.04999V4.56999H4.56999V3.04999Z" fill="#7E7E7E"/>
<path d="M3.04999 4.57001H1.51999V6.10001H3.04999V4.57001Z" fill="#7E7E7E"/>
<path d="M1.52 18.29H3.05V12.19H1.52V6.10001H0V30.48H1.52V18.29Z" fill="#7E7E7E"/>
</g>
<defs>
<clipPath id="clip0_16_41">
<rect width="32" height="32" fill="white"/>
</clipPath>
</defs>
</svg>
