<svg width="20" height="43" viewBox="0 0 20 43" fill="none" xmlns="http://www.w3.org/2000/svg">
<g clip-path="url(#clip0_4001_441)">
<path d="M17.6187 40.1438H18.575V39.1937H19.525V26.8125H18.575V27.7625H17.6187V28.7125H14.7625V29.6688H5.23749V30.6187H13.8125V35.3812H14.7625V34.4313H17.6187V33.475H18.575V34.4313H17.6187V35.3812H14.7625V36.3312H13.8125V41.0938H5.23749V42.05H14.7625V41.0938H17.6187V40.1438Z" fill="#7E7E7E"/>
<path d="M18.575 25.8562H16.6687V26.8125H18.575V25.8562Z" fill="#7E7E7E"/>
<path d="M16.6687 24.9062H13.8125V25.8563H16.6687V24.9062Z" fill="#7E7E7E"/>
<path d="M13.8125 35.3812H5.23749V36.3312H13.8125V35.3812Z" fill="#7E7E7E"/>
<path d="M9.04998 38.2375H6.19373V39.1938H9.04998V38.2375Z" fill="#7E7E7E"/>
<path d="M9.04998 32.525H6.19373V33.475H9.04998V32.525Z" fill="#7E7E7E"/>
<path d="M13.8125 23.95H6.19373V24.9062H13.8125V23.95Z" fill="#7E7E7E"/>
<path d="M5.23748 40.1438H2.38123V41.0938H5.23748V40.1438Z" fill="#7E7E7E"/>
<path d="M5.23748 34.4312H2.38123V35.3812H5.23748V34.4312Z" fill="#7E7E7E"/>
<path d="M5.23748 28.7125H2.38123V29.6687H5.23748V28.7125Z" fill="#7E7E7E"/>
<path d="M6.19374 24.9062H3.33124V25.8563H6.19374V24.9062Z" fill="#7E7E7E"/>
<path d="M4.28748 36.3313H2.38123V38.2375H4.28748V36.3313Z" fill="#7E7E7E"/>
<path d="M4.28748 30.6187H2.38123V32.525H4.28748V30.6187Z" fill="#7E7E7E"/>
<path d="M3.33121 25.8562H1.43121V26.8125H3.33121V25.8562Z" fill="#7E7E7E"/>
<path d="M2.38121 39.1937H1.43121V40.1437H2.38121V39.1937Z" fill="#7E7E7E"/>
<path d="M1.43123 34.4313H2.38123V33.475H1.43123V28.7125H2.38123V27.7625H1.43123V26.8125H0.474976V39.1937H1.43123V34.4313Z" fill="#7E7E7E"/>
</g>
<defs>
<clipPath id="clip0_4001_441">
<rect width="20" height="20" fill="white" transform="translate(0 23)"/>
</clipPath>
</defs>
</svg>
