<svg width="72" height="65" viewBox="0 0 72 65" fill="none" xmlns="http://www.w3.org/2000/svg">
<path d="M62 26.76H60.48V28.29H62V26.76Z" fill="#7E7E7E"/>
<path d="M60.48 25.24H57.43V26.76H60.48V25.24Z" fill="#7E7E7E"/>
<path d="M58.95 22.19H57.43V23.72H58.95V22.19Z" fill="#7E7E7E"/>
<path d="M52.86 23.72V20.67H51.34V19.14H49.81V16.1H51.34V14.57H57.43V16.1H58.95V22.19H60.48V13.05H58.95V11.52H57.43V10H51.34V11.52H49.81V13.05H48.29V17.62H43.72V13.05H42.19V11.52H40.67V10H34.57V11.52H33.05V13.05H31.53V22.19H33.05V16.1H34.57V14.57H40.67V16.1H42.19V19.14H40.67V20.67H39.15V23.72H34.57V25.24H39.15V31.33H40.67V23.72H42.19V22.19H49.81V23.72H51.34V31.33H52.86V25.24H57.43V23.72H52.86Z" fill="#7E7E7E"/>
<path d="M55.91 37.43H54.38V38.95H55.91V37.43Z" fill="#7E7E7E"/>
<path d="M54.38 35.91H52.86V37.43H54.38V35.91Z" fill="#7E7E7E"/>
<path d="M52.86 34.38H49.81V35.91H52.86V34.38Z" fill="#7E7E7E"/>
<path d="M51.34 31.33H49.81V32.86H51.34V31.33Z" fill="#7E7E7E"/>
<path d="M49.81 32.86H42.19V34.38H49.81V32.86Z" fill="#7E7E7E"/>
<path d="M48.29 29.81H43.72V31.33H48.29V29.81Z" fill="#7E7E7E"/>
<path d="M42.19 31.33H40.67V32.86H42.19V31.33Z" fill="#7E7E7E"/>
<path d="M42.19 34.38H39.15V35.91H42.19V34.38Z" fill="#7E7E7E"/>
<path d="M39.15 35.91H37.62V37.43H39.15V35.91Z" fill="#7E7E7E"/>
<path d="M37.62 37.43H36.1V38.95H37.62V37.43Z" fill="#7E7E7E"/>
<path d="M34.57 22.19H33.05V23.72H34.57V22.19Z" fill="#7E7E7E"/>
<path d="M34.57 25.24H31.53V26.76H34.57V25.24Z" fill="#7E7E7E"/>
<path d="M31.53 26.76H30V28.29H31.53V26.76Z" fill="#7E7E7E"/>
</svg>
