<svg width="57" height="32" viewBox="0 0 57 32" fill="none" xmlns="http://www.w3.org/2000/svg">
<g clip-path="url(#clip0_4001_557)">
<path d="M47.85 12.19V18.29H50.9V30.48H52.43V1.52H50.9V12.19H47.85ZM50.9 15.24H49.38V13.71H50.9V15.24Z" fill="#7E7E7E"/>
<path d="M50.9 30.48H26.52V32H50.9V30.48Z" fill="#7E7E7E"/>
<path d="M49.38 27.43H28.05V28.95H49.38V27.43Z" fill="#7E7E7E"/>
<path d="M43.28 18.29H41.76V19.81H43.28V18.29Z" fill="#7E7E7E"/>
<path d="M41.76 21.33H35.66V22.86H41.76V21.33Z" fill="#7E7E7E"/>
<path d="M35.66 18.29H34.14V19.81H35.66V18.29Z" fill="#7E7E7E"/>
<path d="M32.615 7.62H31.09V9.14H49.38V1.52H50.9V0H31.09V1.52H32.615V7.62ZM46.325 3.05H47.845V7.62H46.325V3.05ZM43.275 3.05H44.815V7.62H43.285L43.275 3.05ZM40.235 3.05H41.755V7.62H40.235V3.05ZM37.185 3.05H38.715V7.62H37.195L37.185 3.05ZM34.135 3.05H35.655V7.62H34.135V3.05Z" fill="#7E7E7E"/>
<path d="M31.09 1.52H29.57V3.05H31.09V1.52Z" fill="#7E7E7E"/>
<path d="M29.57 3.05H28.05V4.57H29.57V3.05Z" fill="#7E7E7E"/>
<path d="M28.05 4.57H26.52V6.1H28.05V4.57Z" fill="#7E7E7E"/>
<path d="M26.52 18.29H28.05V12.19H26.52V6.10001H25V30.48H26.52V18.29Z" fill="#7E7E7E"/>
</g>
<defs>
<clipPath id="clip0_4001_557">
<rect width="32" height="32" fill="white" transform="translate(25)"/>
</clipPath>
</defs>
</svg>
