<svg width="41" height="32" viewBox="0 0 41 32" fill="none" xmlns="http://www.w3.org/2000/svg">
<g clip-path="url(#clip0_2078_1191)">
<path d="M39.48 9.14H37.95V6.09H36.43V4.57H34.9V3.05H31.86V1.52H28.81V0H21.19V1.52H18.14V3.05H15.09V4.57H13.57V6.09H12.05V9.14H10.52V12.19H9V19.81H10.52V22.86H12.05V25.9H13.57V27.43H15.09V28.95H18.14V30.48H21.19V32H28.81V30.48H31.86V28.95H34.9V27.43H36.43V25.9H37.95V22.86H39.48V19.81H41V12.19H39.48V9.14ZM21.19 6.09H22.71V4.57H27.29V6.09H28.81V10.67H27.29V12.19H22.71V10.67H21.19V6.09ZM31.86 25.9H30.33V27.43H22.71V25.9H21.19V15.24H22.71V13.71H27.29V15.24H28.81V22.86H30.33V24.38H31.86V25.9Z" fill="#7E7E7E"/>
</g>
<defs>
<clipPath id="clip0_2078_1191">
<rect width="32" height="32" fill="white" transform="translate(9)"/>
</clipPath>
</defs>
</svg>
