<svg width="29" height="35" viewBox="0 0 29 35" fill="none" xmlns="http://www.w3.org/2000/svg">
<g clip-path="url(#clip0_4001_439)">
<path d="M0.565708 15.7787L1.28187 27.1178L3.39701 26.9842L3.53963 29.2422C4.25273 29.2234 4.97237 29.155 5.76797 29.1178L5.62453 26.8468L7.85185 26.7061L7.27892 17.6348L9.50623 17.4942L9.64946 19.762L11.8768 19.6213L12.02 21.8891L14.2473 21.7484L14.3906 24.0163L16.6179 23.8756L16.7611 26.1434L18.9884 26.0027L19.1316 28.2705L21.359 28.1298L21.5022 30.3977L23.7295 30.257L23.8727 32.5248L26.1 32.3841L26.2408 34.6128L30.6954 34.3314L30.4112 29.8317L28.1839 29.9724L28.0407 27.7046L25.8134 27.8452L25.6701 25.5774L23.4428 25.7181L23.2996 23.4503L21.0723 23.591L20.9291 21.3232L18.7017 21.4638L18.5585 19.196L16.3312 19.3367L16.188 17.0689L13.9607 17.2096L13.8174 14.9418L11.5901 15.0824L11.4469 12.8146L20.3561 12.2519L20.2129 9.98411L22.4018 9.84586C22.3923 9.49265 22.3887 9.12924 22.3722 8.76663C22.3551 8.39424 22.3284 8.02246 22.3002 7.57542L20.0729 7.7161L19.9368 5.56249L8.80028 6.26587L8.9363 8.41947L2.25116 8.84169L2.68085 15.6451L0.565708 15.7787Z" fill="#7E7E7E"/>
</g>
<defs>
<clipPath id="clip0_4001_439">
<rect width="28.9004" height="34.3899" fill="white"/>
</clipPath>
</defs>
</svg>
