<svg width="7" height="8" viewBox="0 0 7 8" fill="none" xmlns="http://www.w3.org/2000/svg">
<path fill-rule="evenodd" clip-rule="evenodd" d="M1.13213 0.616058H5.8982C6.08034 0.616058 6.23213 0.646415 6.41427 0.737487C6.62677 0.828558 6.7482 0.980344 6.80891 1.10177C6.80891 1.10177 6.80891 1.13213 6.83927 1.13213C6.93034 1.28392 6.99105 1.46606 6.99105 1.67856C6.99105 1.8607 6.9607 2.04284 6.83927 2.22499L3.83391 7.3857C3.7732 7.50713 3.65177 7.56784 3.49998 7.56784C3.37855 7.56784 3.25713 7.50713 3.16605 7.3857L0.221412 2.22499C0.160698 2.10356 0.0392689 1.95177 0.0392689 1.70892C0.00891173 1.49642 0.0696259 1.31427 0.160697 1.13213C0.251769 0.949987 0.403554 0.798201 0.616054 0.737487C0.798197 0.616058 1.0107 0.616058 1.13213 0.616058ZM3.1357 1.34463H1.13213C1.0107 1.34463 0.949983 1.34463 0.919626 1.37499C0.858912 1.40534 0.828555 1.4357 0.798197 1.49642C0.76784 1.52677 0.76784 1.58749 0.76784 1.6482C0.76784 1.67856 0.798197 1.70892 0.858911 1.83034L3.1357 5.77677V1.34463ZM3.86427 1.34463V5.80713L6.17141 1.83034C6.20177 1.76963 6.20177 1.70892 6.20177 1.6482C6.20177 1.58749 6.20177 1.52677 6.17141 1.49642C6.14105 1.46606 6.14105 1.4357 6.1107 1.4357L6.08034 1.40534C6.01963 1.37499 5.95891 1.37499 5.86784 1.37499H3.86427V1.34463Z" fill="white"/>
</svg>
