<svg width="64" height="58" viewBox="0 0 64 58" fill="none" xmlns="http://www.w3.org/2000/svg" xmlns:xlink="http://www.w3.org/1999/xlink">
<path d="M64,32.57L60.96,32.57L60.96,35.63L64,35.63L64,32.57Z" fill="#7E7E7E"/>
<path d="M60.96,29.53L54.86,29.53L54.86,32.57L60.96,32.57L60.96,29.53Z" fill="#7E7E7E"/>
<path d="M57.9,23.43L54.86,23.43L54.86,26.49L57.9,26.49L57.9,23.43Z" fill="#7E7E7E"/>
<path d="M45.72,26.49L45.72,20.39L42.68,20.39L42.68,17.33L39.62,17.33L39.62,11.25L42.68,11.25L42.68,8.19L54.86,8.19L54.86,11.25L57.9,11.25L57.9,23.43L60.96,23.43L60.96,5.15L57.9,5.15L57.9,2.09L54.86,2.09L54.86,-0.95L42.68,-0.95L42.68,2.09L39.62,2.09L39.62,5.15L36.58,5.15L36.58,14.29L27.44,14.29L27.44,5.15L24.38,5.15L24.38,2.09L21.34,2.09L21.34,-0.95L9.14,-0.95L9.14,2.09L6.1,2.09L6.1,5.15L3.06,5.15L3.06,23.43L6.1,23.43L6.1,11.25L9.14,11.25L9.14,8.19L21.34,8.19L21.34,11.25L24.38,11.25L24.38,17.33L21.34,17.33L21.34,20.39L18.3,20.39L18.3,26.49L9.14,26.49L9.14,29.53L18.3,29.53L18.3,41.71L21.34,41.71L21.34,26.49L24.38,26.49L24.38,23.43L39.62,23.43L39.62,26.49L42.68,26.49L42.68,41.71L45.72,41.71L45.72,29.53L54.86,29.53L54.86,26.49L45.72,26.49Z" fill="#7E7E7E"/>
<path d="M51.82,53.91L48.76,53.91L48.76,56.95L51.82,56.95L51.82,53.91Z" fill="#7E7E7E"/>
<path d="M48.76,50.87L45.72,50.87L45.72,53.91L48.76,53.91L48.76,50.87Z" fill="#7E7E7E"/>
<path d="M45.72,47.81L39.62,47.81L39.62,50.87L45.72,50.87L45.72,47.81Z" fill="#7E7E7E"/>
<path d="M42.68,41.71L39.62,41.71L39.62,44.77L42.68,44.77L42.68,41.71Z" fill="#7E7E7E"/>
<path d="M39.62,44.77L24.38,44.77L24.38,47.81L39.62,47.81L39.62,44.77Z" fill="#7E7E7E"/>
<path d="M36.58,38.67L27.44,38.67L27.44,41.71L36.58,41.71L36.58,38.67Z" fill="#7E7E7E"/>
<path d="M24.38,41.71L21.34,41.71L21.34,44.77L24.38,44.77L24.38,41.71Z" fill="#7E7E7E"/>
<path d="M24.38,47.81L18.3,47.81L18.3,50.87L24.38,50.87L24.38,47.81Z" fill="#7E7E7E"/>
<path d="M18.3,50.87L15.24,50.87L15.24,53.91L18.3,53.91L18.3,50.87Z" fill="#7E7E7E"/>
<path d="M15.24,53.91L12.2,53.91L12.2,56.95L15.24,56.95L15.24,53.91Z" fill="#7E7E7E"/>
<path d="M9.14,23.43L6.1,23.43L6.1,26.49L9.14,26.49L9.14,23.43Z" fill="#7E7E7E"/>
<path d="M9.14,29.53L3.06,29.53L3.06,32.57L9.14,32.57L9.14,29.53Z" fill="#7E7E7E"/>
<path d="M3.06,32.57L0,32.57L0,35.63L3.06,35.63L3.06,32.57Z" fill="#7E7E7E"/>
</svg>
