<svg width="56" height="64" viewBox="0 0 56 64" fill="none" xmlns="http://www.w3.org/2000/svg" xmlns:xlink="http://www.w3.org/1999/xlink">
<path d="M45.7,24.38L45.7,36.58L51.8,36.58L51.8,60.96L54.86,60.96L54.86,3.04L51.8,3.04L51.8,24.38L45.7,24.38ZM51.8,30.48L48.76,30.48L48.76,27.42L51.8,27.42L51.8,30.48Z" fill="#7E7E7E"/>
<path d="M51.8,60.96L3.04,60.96L3.04,64L51.8,64L51.8,60.96Z" fill="#7E7E7E"/>
<path d="M48.76,54.86L6.1,54.86L6.1,57.9L48.76,57.9L48.76,54.86Z" fill="#7E7E7E"/>
<path d="M36.56,36.58L33.52,36.58L33.52,39.62L36.56,39.62L36.56,36.58Z" fill="#7E7E7E"/>
<path d="M33.52,42.66L21.32,42.66L21.32,45.72L33.52,45.72L33.52,42.66Z" fill="#7E7E7E"/>
<path d="M21.32,36.58L18.28,36.58L18.28,39.62L21.32,39.62L21.32,36.58Z" fill="#7E7E7E"/>
<path d="M15.23,15.24L12.18,15.24L12.18,18.28L48.76,18.28L48.76,3.04L51.8,3.04L51.8,0L12.18,0L12.18,3.04L15.23,3.04L15.23,15.24ZM42.65,6.1L45.69,6.1L45.69,15.24L42.65,15.24L42.65,6.1ZM36.55,6.1L39.63,6.1L39.63,15.24L36.57,15.24L36.55,6.1ZM30.47,6.1L33.51,6.1L33.51,15.24L30.47,15.24L30.47,6.1ZM24.37,6.1L27.43,6.1L27.43,15.24L24.39,15.24L24.37,6.1ZM18.27,6.1L21.31,6.1L21.31,15.24L18.27,15.24L18.27,6.1Z" fill="#7E7E7E"/>
<path d="M12.18,3.04L9.14,3.04L9.14,6.1L12.18,6.1L12.18,3.04Z" fill="#7E7E7E"/>
<path d="M9.14,6.1L6.1,6.1L6.1,9.14L9.14,9.14L9.14,6.1Z" fill="#7E7E7E"/>
<path d="M6.1,9.14L3.04,9.14L3.04,12.2L6.1,12.2L6.1,9.14Z" fill="#7E7E7E"/>
<path d="M3.04,36.58L6.1,36.58L6.1,24.38L3.04,24.38L3.04,12.2L0,12.2L0,60.96L3.04,60.96L3.04,36.58Z" fill="#7E7E7E"/>
</svg>
