<svg width="34" height="34" viewBox="0 0 34 34" fill="none" xmlns="http://www.w3.org/2000/svg" xmlns:xlink="http://www.w3.org/1999/xlink">
<path d="M17,34C26.389,34 34,26.389 34,17C34,7.611 26.389,0 17,0C7.611,0 0,7.611 0,17C0,26.389 7.611,34 17,34Z" fill="#0088CC"/>
<path d="M12.264,11.232L21.796,11.232C22.161,11.232 22.464,11.293 22.829,11.475C23.254,11.657 23.496,11.961 23.618,12.204C23.618,12.204 23.618,12.264 23.679,12.264C23.861,12.568 23.982,12.932 23.982,13.357C23.982,13.721 23.921,14.086 23.679,14.45L17.668,24.771C17.546,25.014 17.304,25.136 17,25.136C16.757,25.136 16.514,25.014 16.332,24.771L10.443,14.45C10.321,14.207 10.079,13.904 10.079,13.418C10.018,12.993 10.139,12.629 10.321,12.264C10.504,11.9 10.807,11.596 11.232,11.475C11.596,11.232 12.021,11.232 12.264,11.232ZM16.271,12.689L12.264,12.689C12.021,12.689 11.9,12.689 11.839,12.75C11.718,12.811 11.657,12.871 11.596,12.993C11.536,13.054 11.536,13.175 11.536,13.296C11.536,13.357 11.596,13.418 11.718,13.661L16.271,21.554L16.271,12.689ZM17.729,12.689L17.729,21.614L22.343,13.661C22.404,13.539 22.404,13.418 22.404,13.296C22.404,13.175 22.404,13.054 22.343,12.993C22.282,12.932 22.282,12.871 22.221,12.871L22.161,12.811C22.039,12.75 21.918,12.75 21.736,12.75L17.729,12.75L17.729,12.689Z" clip-rule="evenodd" fill-rule="evenodd" fill="#FFFFFF"/>
</svg>
