<svg width="60" height="62" viewBox="0 0 60 62" fill="none" xmlns="http://www.w3.org/2000/svg" xmlns:xlink="http://www.w3.org/1999/xlink">
<path d="M59.4,18.987L59.4,42.339L55.044,42.339L55.044,46.989C53.579,47.043 52.094,46.996 50.457,47.023L50.457,42.346L45.87,42.346L45.87,23.664L41.283,23.664L41.283,28.335L36.696,28.335L36.696,33.005L32.109,33.005L32.109,37.675L27.522,37.675L27.522,42.346L22.935,42.346L22.935,47.016L18.348,47.016L18.348,51.687L13.761,51.687L13.761,56.357L9.174,56.357L9.174,60.947L0,60.947L0,51.68L4.587,51.68L4.587,47.009L9.174,47.009L9.174,42.339L13.761,42.339L13.761,37.669L18.348,37.669L18.348,32.998L22.935,32.998L22.935,28.328L27.522,28.328L27.522,23.657L32.109,23.657L32.109,18.987L36.696,18.987L36.696,14.317L18.348,14.317L18.348,9.646L13.84,9.646C13.814,8.92 13.774,8.174 13.761,7.429C13.748,6.662 13.754,5.896 13.754,4.976L18.341,4.976L18.341,0.541L41.276,0.541L41.276,4.976L55.044,4.976L55.044,18.987L59.4,18.987Z" transform="rotate(360 29.7 30.744)" fill="#7E7E7E"/>
</svg>
