<svg width="64" height="64" viewBox="0 0 64 64" fill="none" xmlns="http://www.w3.org/2000/svg" xmlns:xlink="http://www.w3.org/1999/xlink">
<path d="M60.96,18.28L57.9,18.28L57.9,12.18L54.86,12.18L54.86,9.14L51.8,9.14L51.8,6.1L45.72,6.1L45.72,3.04L39.62,3.04L39.62,0L24.38,0L24.38,3.04L18.28,3.04L18.28,6.1L12.18,6.1L12.18,9.14L9.14,9.14L9.14,12.18L6.1,12.18L6.1,18.28L3.04,18.28L3.04,24.38L0,24.38L0,39.62L3.04,39.62L3.04,45.72L6.1,45.72L6.1,51.8L9.14,51.8L9.14,54.86L12.18,54.86L12.18,57.9L18.28,57.9L18.28,60.96L24.38,60.96L24.38,64L39.62,64L39.62,60.96L45.72,60.96L45.72,57.9L51.8,57.9L51.8,54.86L54.86,54.86L54.86,51.8L57.9,51.8L57.9,45.72L60.96,45.72L60.96,39.62L64,39.62L64,24.38L60.96,24.38L60.96,18.28ZM24.38,12.18L27.42,12.18L27.42,9.14L36.58,9.14L36.58,12.18L39.62,12.18L39.62,21.34L36.58,21.34L36.58,24.38L27.42,24.38L27.42,21.34L24.38,21.34L24.38,12.18ZM45.72,51.8L42.66,51.8L42.66,54.86L27.42,54.86L27.42,51.8L24.38,51.8L24.38,30.48L27.42,30.48L27.42,27.42L36.58,27.42L36.58,30.48L39.62,30.48L39.62,45.72L42.66,45.72L42.66,48.76L45.72,48.76L45.72,51.8Z" fill="#7E7E7E"/>
</svg>
